# xmcd
#
# Track frame offsets:
#	150
#	20242
#	39893
#	60533
#	77646
#	95639
#	113873
#	129793
#	145729
#	163497
#	183711
#	203905
#	220583
#	237193
#
# Disc length: 3438
#
# Revision: 1
# Processed by: cddbd v1.5.1PL0 Copyright (c) Steve Scherf et al.
# Submitted via: dBpowerAMP V4.0
# Normalized: r0:TDELIM( - )
#
DISCID=c20d6c0e
DTITLE=Promo Only - Urban Club January 05
DYEAR=2005
DGENRE=Hip-Hop/R&B
TTITLE0=Goodie Mob pres. Lumberjacks - Turn Your Whip
TTITLE1=Chingy feat. Janet Jackson - Don't Worry
TTITLE2=Tru - Where U From
TTITLE3=Sly Boggy feat. Jagged Edge - If You Got Crew
TTITLE4=Chingy feat. Lil Flip and Boozie of the G.I.B - Balla Baby (Remix)
TTITLE5=Beatnuts feat. Rahzel - Confused Rappers
TTITLE6=Red Cafe - All Night Long
TTITLE7=50 Cent - Disco Inferno
TTITLE8=The Game feat. 50 Cent - How We Do
TTITLE9=Mario feat. Jadakis and T.I. - Let Me Love You (Remix)
TTITLE10=Anthony Hamilton - Cornbread, Fish and Collard Greens
TTITLE11=Goodie Mob pres. Lumberjacks - Puttin On 2 Nite
TTITLE12=Rupee feat. Daddy Yankee - Tempted To Touch (Remix)
TTITLE13=Usher feat. Fabolous - Caught Up (Remix)
EXTD=
EXTT0=
EXTT1=
EXTT2=
EXTT3=
EXTT4=
EXTT5=
EXTT6=
EXTT7=
EXTT8=
EXTT9=
EXTT10=
EXTT11=
EXTT12=
EXTT13=
PLAYORDER=
